<svg width="41" height="40" viewBox="0 0 41 40" fill="none" xmlns="http://www.w3.org/2000/svg">
<g clip-path="url(#clip0_8294_156956)">
<path d="M20.5957 40C31.6414 40 40.5957 31.0457 40.5957 20C40.5957 8.95431 31.6414 0 20.5957 0C9.55001 0 0.595703 8.95431 0.595703 20C0.595703 31.0457 9.55001 40 20.5957 40Z" fill="#FF492C"/>
<path d="M29.2517 15.3228H25.8357C25.9277 14.7868 26.2597 14.4868 26.9317 14.1468L27.5597 13.8268C28.6837 13.2508 29.2837 12.5988 29.2837 11.5348C29.2837 10.8668 29.0237 10.3388 28.5077 9.95882C27.9917 9.57882 27.3837 9.39082 26.6717 9.39082C26.1209 9.38434 25.5802 9.53864 25.1157 9.83482C24.6477 10.1228 24.2997 10.4948 24.0837 10.9588L25.0717 11.9508C25.4557 11.1748 26.0117 10.7948 26.7437 10.7948C27.3637 10.7948 27.7437 11.1148 27.7437 11.5588C27.7437 11.9308 27.5597 12.2388 26.8477 12.5988L26.4437 12.7948C25.5677 13.2388 24.9597 13.7468 24.6077 14.3228C24.2557 14.8988 24.0837 15.6228 24.0837 16.4988V16.7388H29.2517V15.3228Z" fill="white"/>
<path d="M28.7956 18.3672H23.1396L20.3116 23.2632H25.9676L28.7956 28.1632L31.6236 23.2632L28.7956 18.3672Z" fill="white"/>
<path d="M20.7997 26.5303C17.1997 26.5303 14.2677 23.5983 14.2677 19.9983C14.2677 16.3983 17.1997 13.4663 20.7997 13.4663L23.0357 8.79031C22.2994 8.64389 21.5504 8.5702 20.7997 8.57031C14.4877 8.57031 9.3717 13.6863 9.3717 19.9983C9.3717 26.3103 14.4877 31.4263 20.7997 31.4263C23.2186 31.4308 25.5757 30.6629 27.5277 29.2343L25.0557 24.9463C23.8731 25.9679 22.3625 26.5301 20.7997 26.5303Z" fill="white"/>
</g>
<defs>
<clipPath id="clip0_8294_156956">
<rect width="40" height="40" fill="white" transform="translate(0.595703)"/>
</clipPath>
</defs>
</svg>
